<?xml version="1.0" encoding="UTF-8" standalone="no"?>
<!DOCTYPE svg PUBLIC "-//W3C//DTD SVG 1.1//EN" "http://www.w3.org/Graphics/SVG/1.1/DTD/svg11.dtd">
<svg width="100%" height="100%" viewBox="0 0 1094 582" version="1.1" xmlns="http://www.w3.org/2000/svg"
    xmlns:xlink="http://www.w3.org/1999/xlink" xml:space="preserve" xmlns:serif="http://www.serif.com/"
    style="fill-rule:evenodd;clip-rule:evenodd;stroke-linecap:round;stroke-linejoin:round;stroke-miterlimit:1.5;">
    <g transform="matrix(1,0,0,1,-23.0823,-15.6905)">
        <g>
            <g transform="matrix(0.982782,0,0,0.973848,-206.628,-1060.25)">
                <path
                    d="M499.148,1135.84C505.723,1151.05 526.607,1208.06 570.306,1208.06C586.244,1208.06 542.09,1128.23 530.853,1116.83C522.17,1108.01 494.256,1124.53 499.148,1135.84Z"
                    style="fill:none;stroke:currentColor;stroke-width:11.24px;" />
            </g>
            <g transform="matrix(1.11517,0,0,1.0736,-266.509,-1182.9)">
                <path
                    d="M344.29,1147.83C344.29,1147.83 379.977,1181.25 342.467,1215.6C304.958,1249.95 308.744,1233.09 308.744,1233.09C308.744,1233.09 323.047,1168.52 324.005,1162.12C324.962,1155.72 331.505,1145.21 344.29,1147.83Z"
                    style="fill:none;stroke:currentColor;stroke-width:10.05px;" />
            </g>
            <g transform="matrix(1,0,0,1,-215.222,-1091.84)">
                <path
                    d="M446.599,1278.69C446.599,1278.69 489.864,1272.56 524.806,1291.52C559.747,1310.49 488.603,1302.57 474.428,1278.1"
                    style="fill:none;stroke:currentColor;stroke-width:11px;" />
            </g>
            <g transform="matrix(1,0,0,1,-215.222,-1091.84)">
                <path
                    d="M408.749,1280.91C408.749,1280.91 371.255,1283.67 344.424,1301.55C317.592,1319.44 377.004,1320.71 378.357,1286.65"
                    style="fill:none;stroke:currentColor;stroke-width:11px;" />
            </g>
            <g transform="matrix(1,0,0,1,-215.222,-1091.84)">
                <path
                    d="M428.998,1517.22C428.998,1517.22 409.951,1552.35 433.264,1552.35C448.025,1552.35 428.998,1517.22 428.998,1517.22Z"
                    style="fill:none;stroke:currentColor;stroke-width:11px;" />
            </g>
            <g transform="matrix(1,0,0,1,-215.222,-1091.84)">
                <path
                    d="M387.53,1478.67C387.53,1478.67 381.15,1508.59 421.2,1511.85C461.251,1515.12 484.378,1487.11 472.288,1472.95"
                    style="fill:none;stroke:currentColor;stroke-width:11px;" />
            </g>
            <g transform="matrix(0.99103,0.133641,-0.133641,0.99103,-14.1016,-1135.13)">
                <path d="M422.823,1471.31C422.823,1471.31 420.543,1478.52 421.683,1486.82"
                    style="fill:none;stroke:currentColor;stroke-width:11px;" />
            </g>
            <g transform="matrix(1,0,0,1,-215.222,-1091.84)">
                <path d="M387.182,1471.7C387.182,1471.7 414.069,1521.91 472.141,1468.77"
                    style="fill:none;stroke:currentColor;stroke-width:11px;" />
            </g>
            <g transform="matrix(1,0,0,1,-215.222,-1091.84)">
                <path
                    d="M343.276,1362.02C343.276,1362.02 325.776,1481.7 381.65,1469.8C410.025,1463.75 404.439,1443.56 470.747,1466.18C537.056,1488.8 499.644,1331.71 492.292,1334.98"
                    style="fill:none;stroke:currentColor;stroke-width:11px;" />
            </g>
            <g transform="matrix(1,0,0,1,-215.222,-1091.84)">
                <path d="M439.315,1340.63C439.315,1340.63 399.278,1370.51 461.06,1389.64"
                    style="fill:none;stroke:currentColor;stroke-width:11px;" />
            </g>
            <g transform="matrix(1,0,0,1,-215.222,-1091.84)">
                <path d="M375.116,1344.56C375.116,1344.56 411.463,1370.62 364.451,1378.72"
                    style="fill:none;stroke:currentColor;stroke-width:11px;" />
            </g>
            <g transform="matrix(1,0,0,1.02203,-239.163,-1149.5)">
                <ellipse cx="436.183" cy="1399.16" rx="55.114" ry="41.769"
                    style="fill:none;stroke:currentColor;stroke-width:10.88px;" />
            </g>
            <g transform="matrix(1,0,0,1,-215.222,-1091.84)">
                <path
                    d="M250.427,1365.92C250.427,1374.78 373.351,1859.18 642.971,1385.74C665.493,1346.2 557.342,1322.02 557.342,1322.02C557.342,1322.02 476.294,1129.57 429.121,1286.48C414.389,1335.48 414.47,1120.08 323.734,1325.3C314.551,1346.07 250.427,1318.22 250.427,1365.92Z"
                    style="fill:none;stroke:currentColor;stroke-width:11px;" />
            </g>
            <g transform="matrix(1,0,0,1,-215.222,-1091.84)">
                <path
                    d="M250.427,1365.92C250.427,1365.92 235.016,1322.97 251.212,1306.78C286.394,1271.59 307.299,1165.15 307.299,1165.15C307.299,1165.15 315.932,1105.34 375.977,1153.11C436.022,1200.88 488.856,1133.6 511.396,1115.65C533.937,1097.71 563.142,1176.38 580.661,1218.06C595.318,1252.93 650.282,1255.26 646.464,1373.57"
                    style="fill:none;stroke:currentColor;stroke-width:11px;" />
            </g>
            <g transform="matrix(0.553329,0,0,0.662759,284.367,-37.3564)">
                <path
                    d="M416.108,812.725C390.037,812.725 366.138,806.668 344.412,794.554C322.685,782.44 305.436,765.52 292.664,743.794C279.891,722.067 273.505,697.642 273.505,670.517C273.505,643.392 279.891,619.032 292.664,597.438C305.436,575.843 322.685,558.989 344.412,546.875C366.138,534.761 390.037,528.704 416.108,528.704C442.18,528.704 466.078,534.761 487.805,546.875C509.531,558.989 526.649,575.843 539.158,597.438C551.667,619.032 557.921,643.392 557.921,670.517C557.921,697.642 551.601,722.067 538.96,743.794C526.319,765.52 509.202,782.44 487.607,794.554C466.013,806.668 442.18,812.725 416.108,812.725ZM416.108,751.102C438.229,751.102 455.94,743.728 469.239,728.98C482.538,714.233 489.187,694.745 489.187,670.517C489.187,646.026 482.538,626.472 469.239,611.856C455.94,597.24 438.229,589.932 416.108,589.932C393.724,589.932 375.882,597.175 362.583,611.659C349.284,626.143 342.634,645.762 342.634,670.517C342.634,695.008 352.991,718.76 366.291,733.376C379.59,747.992 393.724,751.102 416.108,751.102Z"
                    style="fill:none;fill-rule:nonzero;stroke:currentColor;stroke-width:24.02px;stroke-linecap:butt;stroke-miterlimit:2;" />
            </g>
            <g transform="matrix(0.553979,0,0,0.652973,290.044,-26.5059)">
                <path
                    d="M695.784,813.12C674.189,813.12 654.767,808.511 637.518,799.294C620.269,790.077 606.706,776.91 596.831,759.792C586.955,742.674 582.017,722.66 582.017,699.749C582.017,677.101 587.021,657.152 597.028,639.903C607.036,622.653 620.73,609.42 638.111,600.203C655.492,590.986 674.979,586.377 696.574,586.377C718.168,586.377 737.656,590.986 755.037,600.203C772.418,609.42 786.112,622.653 796.119,639.903C806.127,657.152 811.13,677.101 811.13,699.749C811.13,722.397 806.061,742.345 795.922,759.594C785.783,776.844 771.957,790.077 754.445,799.294C736.932,808.511 717.378,813.12 695.784,813.12ZM695.784,754.657C708.688,754.657 719.683,749.916 728.768,740.436C737.854,730.955 742.396,717.393 742.396,699.749C742.396,682.104 737.985,668.542 729.163,659.061C720.341,649.581 709.478,644.841 696.574,644.841C683.406,644.841 672.478,649.515 663.787,658.864C655.097,668.213 650.751,681.841 650.751,699.749C650.751,717.393 655.031,730.955 663.59,740.436C672.148,749.916 682.88,754.657 695.784,754.657Z"
                    style="fill:none;fill-rule:nonzero;stroke:currentColor;stroke-width:24.22px;stroke-linecap:butt;stroke-miterlimit:2;" />
            </g>
            <g transform="matrix(0.57845,0,0,0.665326,276.352,-29.2322)">
                <path
                    d="M914.626,620.744C919.169,621.798 930.295,602.178 941.883,595.858C953.47,589.537 967.032,586.377 982.57,586.377C1000.74,586.377 1017.2,590.986 1031.95,600.203C1046.69,609.42 1058.35,622.588 1066.91,639.705C1075.47,656.823 1079.75,676.706 1079.75,699.354C1079.75,722.002 1075.47,741.95 1066.91,759.199C1058.35,776.449 1046.69,789.748 1031.95,799.097C1017.2,808.446 1000.74,813.12 982.57,813.12C967.296,813.12 953.799,809.96 942.08,803.639C930.361,797.319 917.561,767.241 914.626,779.148C910.05,797.714 925.884,892.388 914.626,915.036C904.603,935.198 851.653,937.082 847.077,915.036C835.819,860.786 835.819,643.787 847.077,589.537C851.653,567.491 903.368,584.336 914.626,589.537C924.069,593.9 910.083,619.691 914.626,620.744ZM1011.01,699.354C1011.01,682.499 1006.34,669.266 996.988,659.654C987.639,650.042 976.118,645.236 962.424,645.236C948.993,645.236 937.603,650.108 928.254,659.851C918.905,669.595 914.231,682.894 914.231,699.749C914.231,716.603 918.905,729.902 928.254,739.646C937.603,749.39 948.993,754.262 962.424,754.262C975.855,754.262 987.31,749.324 996.791,739.448C1006.27,729.573 1011.01,716.208 1011.01,699.354Z"
                    style="fill:none;fill-rule:nonzero;stroke:currentColor;stroke-width:23.53px;stroke-linecap:butt;stroke-miterlimit:2;" />
            </g>
            <g transform="matrix(0.57845,0,0,0.665326,276.352,-29.2322)">
                <path
                    d="M1204.27,820.534C1185.04,820.534 1167.92,817.242 1152.91,810.658C1137.9,804.075 1126.05,795.055 1117.36,783.599C1108.67,772.144 1094.76,744.09 1103.45,737.671C1112.14,731.252 1157.3,734.576 1170.2,737.671C1177.15,739.335 1174.55,751.497 1180.87,756.237C1187.19,760.977 1194.96,763.347 1204.18,763.347C1212.6,763.347 1219.12,761.701 1223.73,758.409C1228.34,755.118 1230.64,750.838 1230.64,745.571C1230.64,739.251 1227.35,734.576 1220.77,731.548C1214.18,728.519 1203.52,725.162 1188.77,721.475C1172.97,717.788 1159.8,713.904 1149.27,709.822C1138.74,705.74 1129.65,699.288 1122.01,690.466C1114.38,681.643 1110.56,669.727 1110.56,654.716C1110.56,642.075 1114.49,615.559 1121.47,605.157C1128.45,594.755 1138.72,586.525 1152.28,580.468C1165.84,574.411 1181.97,571.383 1200.67,571.383C1228.32,571.383 1250.11,578.23 1266.05,591.924C1281.98,605.618 1298.88,652.346 1293.06,661.431C1287.23,670.517 1242.73,664.46 1230.64,661.431C1223.93,659.748 1226.23,647.737 1220.57,643.26C1214.91,638.784 1207.47,636.545 1198.25,636.545C1190.35,636.545 1184.3,638.059 1180.08,641.088C1175.87,644.116 1173.76,648.264 1173.76,653.531C1173.76,659.851 1177.12,664.592 1183.83,667.752C1190.55,670.912 1201.02,674.072 1215.24,677.232C1231.57,681.446 1244.87,685.594 1255.13,689.676C1265.41,693.757 1274.42,700.341 1282.19,709.427C1289.96,718.512 1293.98,730.692 1294.24,745.966C1294.24,758.87 1289.92,777.806 1282.68,787.944C1275.44,798.083 1265.04,806.05 1251.47,811.843C1237.91,817.637 1222.17,820.534 1204.27,820.534Z"
                    style="fill:none;fill-rule:nonzero;stroke:currentColor;stroke-width:23.31px;stroke-linecap:butt;stroke-miterlimit:2;" />
            </g>
            <g transform="matrix(0.883402,0,0,1,47.085,-1045)">
                <path d="M495.203,1380.95C495.203,1380.95 464.861,1397.22 456.569,1436.86"
                    style="fill:none;stroke:currentColor;stroke-width:7.77px;" />
            </g>
            <g transform="matrix(0.883402,0,0,1,40.4681,-1044.67)">
                <path d="M462.828,1452.54C462.828,1452.54 461.446,1461.54 465.049,1469.67"
                    style="fill:none;stroke:currentColor;stroke-width:7.77px;" />
            </g>
            <g transform="matrix(0.887898,0,0,0.977404,43.6488,-1005.45)">
                <path d="M686.526,1416.44C686.526,1416.44 659.537,1432.82 657.89,1466.23"
                    style="fill:none;stroke:currentColor;stroke-width:7.85px;" />
            </g>
            <g transform="matrix(0.887898,0,0,0.977404,40.3752,-1006.84)">
                <path d="M660.958,1485.92C660.958,1485.92 659.937,1492.77 663.724,1499.91"
                    style="fill:none;stroke:currentColor;stroke-width:7.85px;" />
            </g>
            <g transform="matrix(0.90481,0,0,1.00387,30.0296,-1040.45)">
                <path d="M826.319,1412.05C826.319,1412.05 822.302,1498 824.921,1509.21"
                    style="fill:none;stroke:currentColor;stroke-width:7.67px;" />
            </g>
            <g transform="matrix(0.90481,0,0,1.00387,30.0296,-1040.45)">
                <path d="M823.321,1528.11C823.321,1528.11 821.914,1544.91 823.671,1548.24"
                    style="fill:none;stroke:currentColor;stroke-width:7.67px;" />
            </g>
            <g transform="matrix(0.90481,0,0,1.00387,30.0296,-1040.45)">
                <path d="M947.384,1480.26C947.384,1480.26 946.472,1512.19 919.757,1527.13"
                    style="fill:none;stroke:currentColor;stroke-width:7.67px;" />
            </g>
            <g transform="matrix(0.90481,0,0,1.00387,30.0296,-1040.45)">
                <path d="M1023.65,1402.67C1023.65,1402.67 998.712,1413.94 999.007,1432.4"
                    style="fill:none;stroke:currentColor;stroke-width:7.67px;" />
            </g>
            <g transform="matrix(0.90481,0,0,1.00387,30.0296,-1040.45)">
                <path d="M997.55,1448L997.55,1448Z" style="fill:none;stroke:currentColor;stroke-width:11.51px;" />
            </g>
            <g transform="matrix(0.142895,0,0,0.142745,791.707,206.516)">
                <path d="M995.563,1446.79C995.563,1446.79 998.839,1455.31 1013.22,1470.8"
                    style="fill:none;stroke:currentColor;stroke-width:51.35px;" />
            </g>
            <g transform="matrix(1.77743,0,0,1.82868,-722.324,-1825.55)">
                <path
                    d="M669.159,1120.83C662.445,1118.08 665.732,1105.46 669.159,1099.06C677.47,1083.54 705.689,1039.62 719.022,1027.73C726.521,1021.05 745.176,1018.51 749.161,1027.73C754.184,1039.36 747.005,1085.86 749.161,1097.48C749.948,1101.72 760.01,1093.71 762.1,1097.48C764.257,1101.37 764.257,1116.94 762.1,1120.83C760.01,1124.61 751.318,1117.41 749.161,1120.83C747.005,1124.25 753.658,1137.93 749.161,1141.35C744.664,1144.77 726.675,1144.77 722.178,1141.35C717.681,1137.93 728.555,1123.3 722.178,1120.83C713.342,1117.41 677.996,1124.46 669.159,1120.83Z"
                    style="fill:none;fill-rule:nonzero;stroke:currentColor;stroke-width:8.13px;stroke-linecap:butt;stroke-miterlimit:2;" />
            </g>
            <g transform="matrix(1.77743,0,0,1.82868,-350.312,-1824.67)">
                <path
                    d="M669.159,1120.83C662.445,1118.08 665.732,1105.46 669.159,1099.06C677.47,1083.54 705.689,1039.62 719.022,1027.73C726.521,1021.05 745.176,1018.51 749.161,1027.73C754.184,1039.36 747.005,1085.86 749.161,1097.48C749.948,1101.72 760.01,1093.71 762.1,1097.48C764.257,1101.37 764.257,1116.94 762.1,1120.83C760.01,1124.61 751.318,1117.41 749.161,1120.83C747.005,1124.25 753.658,1137.93 749.161,1141.35C744.664,1144.77 726.675,1144.77 722.178,1141.35C717.681,1137.93 728.555,1123.3 722.178,1120.83C713.342,1117.41 677.996,1124.46 669.159,1120.83Z"
                    style="fill:none;fill-rule:nonzero;stroke:currentColor;stroke-width:8.13px;stroke-linecap:butt;stroke-miterlimit:2;" />
            </g>
            <g transform="matrix(1.10593,0,0,1.40654,-226.961,-1374.83)">
                <path
                    d="M724.072,1057.4C719.654,1057.4 697.562,1090.8 697.562,1097.48C697.562,1104.16 719.654,1104.16 724.072,1097.48C728.49,1090.8 728.49,1057.4 724.072,1057.4Z"
                    style="fill:none;fill-rule:nonzero;stroke:currentColor;stroke-width:11.59px;stroke-linecap:butt;stroke-miterlimit:2;" />
            </g>
            <g transform="matrix(1.10593,0,0,1.40654,145.05,-1373.96)">
                <path
                    d="M724.072,1057.4C719.654,1057.4 697.562,1090.8 697.562,1097.48C697.562,1104.16 719.654,1104.16 724.072,1097.48C728.49,1090.8 728.49,1057.4 724.072,1057.4Z"
                    style="fill:none;fill-rule:nonzero;stroke:currentColor;stroke-width:11.59px;stroke-linecap:butt;stroke-miterlimit:2;" />
            </g>
            <g transform="matrix(1.77743,0,0,1.82868,-722.324,-1825.55)">
                <path
                    d="M775.355,1082.17C775.355,1064.08 778.853,1049.83 785.848,1039.41C792.844,1029 804.126,1023.79 819.695,1023.79C835.264,1023.79 846.547,1029 853.542,1039.41C860.538,1049.83 864.035,1064.08 864.035,1082.17C864.035,1100.48 860.538,1114.84 853.542,1125.25C846.547,1135.67 835.264,1140.87 819.695,1140.87C804.126,1140.87 792.844,1135.67 785.848,1125.25C778.853,1114.84 775.355,1100.48 775.355,1082.17Z"
                    style="fill:none;fill-rule:nonzero;stroke:currentColor;stroke-width:8.13px;stroke-linecap:butt;stroke-miterlimit:2;" />
            </g>
            <g transform="matrix(1.20708,0,0,1.23108,-254.805,-1178.76)">
                <path
                    d="M837.526,1082.17C837.526,1071.55 836.369,1063.37 834.054,1057.64C831.74,1051.9 826.954,1049.04 819.695,1049.04C812.437,1049.04 807.65,1051.9 805.336,1057.64C803.022,1063.37 801.864,1071.55 801.864,1082.17C801.864,1089.33 802.285,1095.24 803.127,1099.92C803.968,1104.61 805.678,1108.39 808.255,1111.29C810.832,1114.18 814.646,1115.63 819.695,1115.63C824.745,1115.63 828.558,1114.18 831.135,1111.29C833.713,1108.39 835.422,1104.61 836.264,1099.92C837.105,1095.24 837.526,1089.33 837.526,1082.17Z"
                    style="fill:none;fill-rule:nonzero;stroke:currentColor;stroke-width:12.03px;stroke-linecap:butt;stroke-miterlimit:2;" />
            </g>
            <g transform="matrix(0.803536,0,0,1.09475,99.3705,-1129.65)">
                <path d="M550.58,1125.14C550.58,1125.14 513.509,1164.04 507.543,1178.78"
                    style="fill:none;stroke:currentColor;stroke-width:7.64px;" />
            </g>
            <g transform="matrix(0.803536,0,0,1.09475,471.382,-1128.77)">
                <path d="M550.58,1125.14C550.58,1125.14 513.509,1164.04 507.543,1178.78"
                    style="fill:none;stroke:currentColor;stroke-width:7.64px;" />
            </g>
            <g transform="matrix(0.630858,0,0,1.14187,178.517,-1191.02)">
                <path d="M500.411,1198.86C500.411,1198.86 488.432,1210.69 488.745,1213.65"
                    style="fill:none;stroke:currentColor;stroke-width:7.95px;" />
            </g>
            <g transform="matrix(0.630858,0,0,1.14187,550.528,-1190.14)">
                <path d="M500.411,1198.86C500.411,1198.86 488.432,1210.69 488.745,1213.65"
                    style="fill:none;stroke:currentColor;stroke-width:7.95px;" />
            </g>
            <g transform="matrix(1.17925,0,0,1.21324,-95.9021,-1276.58)">
                <path d="M672.421,1117.76C672.421,1117.76 648.924,1143.27 655.817,1190.66"
                    style="fill:none;stroke:currentColor;stroke-width:6.13px;" />
            </g>
            <g transform="matrix(0.590739,0,0,0.866795,289.001,-857.938)">
                <path d="M661.671,1205.77C661.671,1205.77 660.282,1210.09 669.038,1225.01"
                    style="fill:none;stroke:currentColor;stroke-width:9.89px;" />
            </g>
            <g transform="matrix(1.86292,0,0,1.50474,-983.237,-148.943)">
                <path
                    d="M1121.66,331.619C1126,344.216 1122.84,394.605 1118.5,407.203C1116.02,414.414 1098.1,414.414 1095.62,407.203C1091.28,394.605 1088.12,344.216 1092.46,331.619C1095.63,322.419 1118.49,322.419 1121.66,331.619ZM1107.45,447.598C1102.72,447.598 1098.86,446.204 1095.86,443.416C1092.86,440.629 1091.36,437.184 1091.36,433.081C1091.36,428.873 1092.86,425.349 1095.86,422.509C1098.86,419.668 1102.72,418.248 1107.45,418.248C1112.08,418.248 1115.9,419.668 1118.89,422.509C1121.89,425.349 1123.39,428.873 1123.39,433.081C1123.39,437.184 1121.89,440.629 1118.89,443.416C1115.9,446.204 1112.08,447.598 1107.45,447.598Z"
                    style="fill:none;fill-rule:nonzero;stroke:currentColor;stroke-width:7.26px;stroke-linecap:butt;stroke-miterlimit:2;" />
            </g>
            <g transform="matrix(0.429734,0,0,1.00463,603.737,-3.77512)">
                <path d="M1066.55,361.738C1066.55,361.738 1063.25,399.168 1070.41,422.176"
                    style="fill:none;stroke:currentColor;stroke-width:9.49px;" />
            </g>
            <g transform="matrix(1.01608,0.0501714,0.049393,1.16098,-39.6624,-126.794)">
                <path d="M1067.01,442.85L1066.16,436.998"
                    style="fill:none;stroke:currentColor;stroke-width:6.43px;" />
            </g>
        </g>
    </g>
</svg>