<?xml version="1.0" encoding="UTF-8" standalone="no"?>
<!DOCTYPE svg PUBLIC "-//W3C//DTD SVG 1.1//EN" "http://www.w3.org/Graphics/SVG/1.1/DTD/svg11.dtd">
<svg width="100%" height="100%" viewBox="0 0 449 181" version="1.1" xmlns="http://www.w3.org/2000/svg"
    xmlns:xlink="http://www.w3.org/1999/xlink" xml:space="preserve" xmlns:serif="http://www.serif.com/"
    style="fill-rule:evenodd;clip-rule:evenodd;stroke-linejoin:round;stroke-miterlimit:2;">
    <g transform="matrix(1,0,0,1,-314.308,-236.72)">
        <g transform="matrix(-1.10973,0,0,1,733.325,67.3807)">
            <path
                d="M373.822,209.588C378.838,234.244 378.838,317.963 373.822,342.619C371.822,352.45 348.045,351.674 343.726,342.619C338.71,332.102 346.027,294.57 343.959,285.798C342.717,280.53 336.539,287.348 331.318,289.988C326.097,292.628 320.318,293.948 313.982,293.948C306.473,293.948 299.843,292.276 294.094,288.932C288.345,285.588 283.886,280.748 280.718,274.412C277.55,268.076 275.966,260.625 275.966,252.06C275.966,252.06 270.979,219.151 275.966,209.588C280.577,200.745 301.006,200.89 305.886,209.588C310.873,218.476 306.572,225.273 307.334,234.336C307.785,239.697 307.057,245.422 310.46,249.059C313.862,252.696 318.438,254.515 324.188,254.515C330.054,254.515 334.689,252.696 338.092,249.059C341.494,245.422 341.295,239.149 341.849,233.798C342.788,224.735 338.71,218.476 343.726,209.588C348.657,200.851 371.822,199.757 373.822,209.588Z"
                style="fill:currentColor;fill-rule:nonzero;" />
        </g>
        <g transform="matrix(1,0,0,0.936938,53.4873,85.9287)">
            <path
                d="M427.777,169.34C432.158,181.66 430.874,243.26 430.874,243.26C430.874,250.652 430.897,250.422 433.741,254.411C436.585,258.4 440.759,260.395 446.264,260.395C451.768,260.395 455.988,258.4 458.924,254.411C461.86,250.422 462.498,250.652 462.498,243.26C462.498,243.26 461.214,181.66 465.595,169.34C468.899,160.048 494.639,160.051 498.43,169.34C503.446,181.63 498.43,243.084 498.43,243.084C498.43,254.113 496.083,263.441 491.39,271.068C486.697,278.694 480.39,284.444 472.47,288.316C464.55,292.188 455.721,294.124 445.982,294.124C436.243,294.124 427.531,292.217 419.846,288.404C412.161,284.59 406.089,278.841 401.63,271.156C397.171,263.47 394.942,254.113 394.942,243.084C394.942,243.084 389.926,181.63 394.942,169.34C398.733,160.051 424.473,160.048 427.777,169.34Z"
                style="fill:currentColor;fill-rule:nonzero;" />
        </g>
        <g transform="matrix(1,0,0,0.957876,53.4984,74.514)">
            <path
                d="M582.558,292.892C572.614,285.118 556.862,246.252 556.862,246.252L549.646,246.252C549.646,246.252 554.662,285.118 549.646,292.892C544.63,300.665 521.924,302.639 519.55,292.892C514.534,272.3 519.55,169.34 519.55,169.34L570.062,169.34C579.801,169.34 588.102,171.041 594.966,174.444C601.83,177.846 606.963,182.51 610.366,188.436C613.769,194.361 615.47,200.961 615.47,208.236C615.47,216.449 613.153,223.782 608.518,230.236C603.883,236.689 597.049,241.265 588.014,243.964C588.014,243.964 617.435,284.737 616.526,292.892C615.617,301.046 591.479,299.865 582.558,292.892ZM549.646,224.956L568.302,224.956C573.817,224.956 577.953,223.606 580.71,220.908C583.467,218.209 584.846,214.396 584.846,209.468C584.846,204.774 583.467,201.078 580.71,198.38C577.953,195.681 573.817,194.332 568.302,194.332L549.646,194.332L549.646,224.956Z"
                style="fill:currentColor;fill-rule:nonzero;" />
        </g>
        <g transform="matrix(1,0,0,0.931553,53.4984,78.9716)">
            <path
                d="M664.398,265.762C669.204,277.993 697.375,264.318 703.822,269.66C710.269,275.002 711.986,294.839 703.082,297.815C691.496,301.687 645.666,313.087 634.302,292.892C622.715,272.3 634.302,169.34 634.302,169.34L664.398,169.34C664.398,169.34 657.827,249.042 664.398,265.762Z"
                style="fill:currentColor;fill-rule:nonzero;" />
        </g>
    </g>
</svg>